<svg width="18" height="18" viewBox="0 0 18 18" fill="none" xmlns="http://www.w3.org/2000/svg">
<path fill-rule="evenodd" clip-rule="evenodd" d="M0.918192 0.918552C1.25361 0.583139 1.79744 0.583139 2.13286 0.918552L5.06389 3.8495C5.30837 3.73771 5.57322 3.66299 5.85107 3.63217L8.70855 3.31517C9.48639 3.22888 10.2613 3.50076 10.8147 4.05414L16.5786 9.81791C17.5849 10.8242 17.5849 12.4556 16.5786 13.4618L13.4614 16.579C12.4551 17.5852 10.8236 17.5852 9.81736 16.579L3.82788 10.5896C3.22584 9.98762 2.96006 9.12708 3.11777 8.29042L3.60307 5.71583C3.64788 5.47813 3.72471 5.25263 3.82881 5.04374L0.918192 2.13319C0.58277 1.79778 0.58277 1.25397 0.918192 0.918552ZM6.03955 7.25442L5.21628 6.43117L4.80585 8.6086C4.75328 8.88748 4.84187 9.17434 5.04255 9.37501L11.032 15.3643C11.3675 15.6998 11.9113 15.6998 12.2467 15.3643L15.3639 12.2472C15.6993 11.9118 15.6993 11.368 15.3639 11.0326L9.6 5.26878C9.41554 5.08432 9.15724 4.99369 8.89796 5.02245L6.50261 5.28819L7.2744 6.05996C7.88948 5.88505 8.57852 6.03973 9.06279 6.52398C9.77433 7.2355 9.77433 8.3891 9.06279 9.10062C8.35125 9.81214 7.19762 9.81214 6.48608 9.10062C5.98657 8.60112 5.83773 7.88376 6.03955 7.25442Z" fill="#FF283D"/>
</svg>
