<svg width="18" height="18" viewBox="0 0 18 18" fill="none" xmlns="http://www.w3.org/2000/svg">
<path fill-rule="evenodd" clip-rule="evenodd" d="M0.666706 6.91699C0.666706 10.3688 3.46493 13.167 6.91671 13.167C8.35974 13.167 9.68855 12.6779 10.7464 11.8566C10.7863 11.9409 10.8411 12.0199 10.9108 12.0896L15.9108 17.0896C16.2362 17.415 16.7639 17.415 17.0893 17.0896C17.4147 16.7641 17.4147 16.2365 17.0893 15.9111L12.0893 10.9111C12.0196 10.8414 11.9406 10.7866 11.8563 10.7467C12.6777 9.68883 13.1667 8.36002 13.1667 6.91699C13.1667 3.46521 10.3685 0.666992 6.91671 0.666992C3.46493 0.666992 0.666706 3.46521 0.666706 6.91699ZM2.33337 6.91699C2.33337 4.38569 4.3854 2.33366 6.91671 2.33366C9.44801 2.33366 11.5 4.38569 11.5 6.91699C11.5 9.4483 9.44801 11.5003 6.91671 11.5003C4.3854 11.5003 2.33337 9.4483 2.33337 6.91699Z" fill="white"/>
</svg>
