<svg width="18" height="18" viewBox="0 0 18 18" fill="none" xmlns="http://www.w3.org/2000/svg">
<path fill-rule="evenodd" clip-rule="evenodd" d="M0.666626 9.00033C0.666626 13.6027 4.39759 17.3337 8.99996 17.3337C13.6023 17.3337 17.3333 13.6027 17.3333 9.00033C17.3333 4.39795 13.6023 0.666992 8.99996 0.666992C4.39759 0.666992 0.666626 4.39795 0.666626 9.00033ZM2.33329 9.00033C2.33329 5.31843 5.31806 2.33366 8.99996 2.33366C12.6819 2.33366 15.6666 5.31843 15.6666 9.00033C15.6666 12.6822 12.6819 15.667 8.99996 15.667C5.31806 15.667 2.33329 12.6822 2.33329 9.00033ZM6.49996 9.83366C6.49996 9.37342 6.12686 9.00033 5.66663 9.00033C5.20639 9.00033 4.83329 9.37342 4.83329 9.83366C4.83329 12.1348 6.69877 14.0003 8.99996 14.0003C11.3011 14.0003 13.1666 12.1348 13.1666 9.83366C13.1666 9.37342 12.7935 9.00033 12.3333 9.00033C11.8731 9.00033 11.5 9.37342 11.5 9.83366C11.5 11.2144 10.3807 12.3337 8.99996 12.3337C7.61925 12.3337 6.49996 11.2144 6.49996 9.83366ZM5.66663 7.33366C6.12686 7.33366 6.49996 6.96056 6.49996 6.50033C6.49996 6.96056 6.87306 7.33366 7.33329 7.33366C7.79353 7.33366 8.16663 6.96056 8.16663 6.50033C8.16663 5.57985 7.42043 4.83366 6.49996 4.83366C5.57948 4.83366 4.83329 5.57985 4.83329 6.50033C4.83329 6.96056 5.20639 7.33366 5.66663 7.33366ZM11.5 6.50033C11.5 6.96056 11.1269 7.33366 10.6666 7.33366C10.2064 7.33366 9.83329 6.96056 9.83329 6.50033C9.83329 5.57985 10.5795 4.83366 11.5 4.83366C12.4204 4.83366 13.1666 5.57985 13.1666 6.50033C13.1666 6.96056 12.7935 7.33366 12.3333 7.33366C11.8731 7.33366 11.5 6.96056 11.5 6.50033Z" fill="#1C294D" fill-opacity="0.5"/>
</svg>
