<svg width="20" height="17" viewBox="0 0 20 17" fill="none" xmlns="http://www.w3.org/2000/svg">
<path d="M19.8982 0.0711096C19.8091 -0.00373122 19.6824 -0.0210947 19.5751 0.0266406L0.172992 8.66668C0.068538 8.71321 0.00127346 8.8131 1.78558e-05 8.92347C-0.00123775 9.03384 0.0638145 9.1351 0.167252 9.18375L4 10.8416C4.10069 10.889 12 6.89921 12 6.89921L7.13411 12.1238C7.04792 12.2164 7 12.3381 7 12.4646V16.5C7 16.9501 7.54822 17.171 7.8603 16.8467L10.49 14.1136L14.4912 16.0546C14.5694 16.0904 14.66 16.0919 14.7394 16.0588C14.8189 16.0256 14.8794 15.9611 14.9054 15.8819L19.9862 0.372364C20.0218 0.264057 19.9871 0.14595 19.8982 0.0711096Z" fill="white"/>
</svg>
