<svg width="23" height="30" viewBox="0 0 23 30" fill="none" xmlns="http://www.w3.org/2000/svg">
<path fill-rule="evenodd" clip-rule="evenodd" d="M12.7976 0C13.3302 0 13.8407 0.212418 14.2162 0.590173L22.4186 8.84355C22.791 9.21826 23 9.72509 23 10.2534V25.7143C23 28.08 21.0919 30 18.7407 30H4.25926C1.90815 30 0 28.0822 0 25.7143V4.28571C0 1.92 1.90815 0 4.25926 0H12.7976ZM19 28C20.1046 28 21 27.1046 21 26V12.0727C21 10.9401 20.0605 10.0336 18.9286 10.074L15.0714 10.2117C13.9395 10.2522 13 9.34557 13 8.21301V4C13 2.89543 12.1046 2 11 2H4C2.89543 2 2 2.89543 2 4V26C2 27.1046 2.89543 28 4 28H19Z" fill="#282F36" fill-opacity="0.3"/>
</svg>
