<svg width="18" height="18" viewBox="0 0 18 18" fill="none" xmlns="http://www.w3.org/2000/svg">
<path fill-rule="evenodd" clip-rule="evenodd" d="M1.49996 0.666992C1.03972 0.666992 0.666626 1.04009 0.666626 1.50033V16.5003C0.666626 16.9606 1.03972 17.3337 1.49996 17.3337H3.99996C4.4602 17.3337 4.83329 16.9606 4.83329 16.5003V4.83366H8.16663V6.50033H7.33329C6.41282 6.50033 5.66663 7.24652 5.66663 8.16699V13.167C5.66663 14.0875 6.41282 14.8337 7.33329 14.8337H15.6666C16.5871 14.8337 17.3333 14.0875 17.3333 13.167V8.16699C17.3333 7.24652 16.5871 6.50033 15.6666 6.50033H14.8333V4.83366H16.5C16.9602 4.83366 17.3333 4.46056 17.3333 4.00033V1.50033C17.3333 1.04009 16.9602 0.666992 16.5 0.666992H1.49996ZM14 3.16699H15.6666V2.33366H2.33329V15.667H3.16663V4.00033C3.16663 3.54009 3.53972 3.16699 3.99996 3.16699H8.99996H14ZM13.1666 4.83366V6.50033H9.83329V4.83366H13.1666ZM8.99996 13.167H14H15.6666V11.5003V9.83366V8.16699H14H8.99996H7.33329V9.83366V11.5003V13.167H8.99996Z" fill="#1C294D" fill-opacity="0.5"/>
</svg>
