<svg width="18" height="18" viewBox="0 0 18 18" fill="none" xmlns="http://www.w3.org/2000/svg">
<path fill-rule="evenodd" clip-rule="evenodd" d="M4.24822 2.49769L4.24878 2.49839L4.24822 2.49769ZM4.28406 2.55396L5.9545 5.18607C5.75265 5.37559 5.53247 5.5633 5.29551 5.76533C5.09185 5.93896 4.87579 6.12316 4.64831 6.32816C4.08451 6.83626 3.97561 7.65343 4.3405 8.28938C6.27004 11.6523 8.9018 13.1825 10.0794 13.7319C10.7888 14.0629 11.5596 13.8017 11.9887 13.2608L13.1446 11.8037C13.1446 11.8037 13.1456 11.8029 13.1473 11.8026C13.1491 11.8023 13.1523 11.8026 13.1523 11.8026C13.1523 11.8026 13.1548 11.8031 13.1572 11.8046C13.8308 12.2163 14.7705 12.7758 15.6337 13.2494C15.4787 14.1763 15.1226 14.7163 14.7299 15.0463C14.3176 15.393 13.7844 15.5754 13.1897 15.6412C12.0023 15.7727 10.7968 15.416 10.5295 15.3291C10.2345 15.1797 8.61709 14.3366 6.88912 12.9704C5.10731 11.5616 3.32066 9.684 2.63734 7.53061C2.13796 5.95684 2.32626 4.8494 2.71877 4.0855C3.09821 3.34703 3.71224 2.84581 4.28406 2.55396ZM3.67978 0.996162C4.46698 0.626415 5.28098 1.01193 5.66013 1.60936L7.40765 4.36293C7.76094 4.91961 7.78516 5.73339 7.21082 6.29085C6.96467 6.52977 6.62221 6.82341 6.30354 7.09666C6.12861 7.24666 5.96085 7.39051 5.82012 7.51579C7.48078 10.3794 9.70098 11.7043 10.7108 12.1888L11.8349 10.7718C12.3656 10.1028 13.3105 9.94643 14.0301 10.3862C14.6958 10.7931 15.6161 11.3407 16.4501 11.798C17.0063 12.1029 17.4042 12.7387 17.2914 13.4564C17.089 14.7456 16.5601 15.6846 15.8065 16.3181C15.0655 16.9411 14.1827 17.2054 13.3741 17.295C11.7836 17.4711 10.2623 16.9942 9.9845 16.902C9.91416 16.8787 9.85579 16.8541 9.79305 16.8225C9.49481 16.6725 7.73724 15.765 5.85136 14.2738C3.9851 12.7982 1.8804 10.6637 1.04539 8.03229C0.432038 6.09937 0.613479 4.53211 1.23262 3.32714C1.8409 2.1433 2.82598 1.39719 3.67978 0.996162Z" fill="#1C294D" fill-opacity="0.5"/>
<path fill-rule="evenodd" clip-rule="evenodd" d="M11.2587 0.743003C10.8397 0.551375 10.3441 0.734563 10.1518 1.15217C9.95951 1.56977 10.1433 2.06365 10.5624 2.25528C12.5011 3.14183 14.72 4.8086 15.7339 7.10862C15.9194 7.52929 16.4119 7.72049 16.834 7.53568C17.2562 7.35087 17.448 6.86003 17.2626 6.43937C16.024 3.62988 13.4061 1.72497 11.2587 0.743003ZM10.6407 3.69451C10.2283 3.48903 9.72682 3.65561 9.52063 4.06657C9.31443 4.47754 9.48158 4.97726 9.89397 5.18274C10.6784 5.57363 11.2214 5.94198 11.6597 6.37882C12.0981 6.81566 12.4677 7.3567 12.8599 8.13847C13.0661 8.54943 13.5676 8.71601 13.98 8.51053C14.3924 8.30505 14.5595 7.80532 14.3533 7.39435C13.9107 6.51223 13.4455 5.80536 12.8403 5.20227C12.2352 4.59918 11.5258 4.13558 10.6407 3.69451Z" fill="#1C294D" fill-opacity="0.5"/>
</svg>
