<svg width="12" height="18" viewBox="0 0 12 18" fill="none" xmlns="http://www.w3.org/2000/svg">
<path fill-rule="evenodd" clip-rule="evenodd" d="M9.58435 8.87971L5.99996 14.7921L2.41557 8.87971C0.677036 6.01205 2.69699 2.30942 5.99996 2.30942C9.30293 2.30942 11.3229 6.01205 9.58435 8.87971ZM1.04793 9.74421C-1.35394 5.78238 1.43673 0.666992 5.99996 0.666992C10.5632 0.666992 13.3539 5.78238 10.952 9.74421L6.53553 17.029C6.28928 17.4352 5.71064 17.4352 5.46439 17.029L1.04793 9.74421ZM6.00012 4.77305C5.11178 4.77305 4.39164 5.50839 4.39164 6.41547C4.39164 7.32256 5.11178 8.0579 6.00012 8.0579C6.88846 8.0579 7.6086 7.32256 7.6086 6.41547C7.6086 5.50839 6.88846 4.77305 6.00012 4.77305Z" fill="#1C294D" fill-opacity="0.5"/>
</svg>
