<svg width="18" height="18" viewBox="0 0 18 18" fill="none" xmlns="http://www.w3.org/2000/svg">
<path fill-rule="evenodd" clip-rule="evenodd" d="M12.8214 0.666992H5.17847C4.51543 0.666992 3.87954 0.930384 3.4107 1.39923L1.39886 3.41107C0.930019 3.87991 0.666626 4.51579 0.666626 5.17884V6.50033V14.8337C0.666626 16.2144 1.78591 17.3337 3.16663 17.3337H14.8333C16.214 17.3337 17.3333 16.2144 17.3333 14.8337V6.50033V5.17884C17.3333 4.5158 17.0699 3.87991 16.6011 3.41107L14.5892 1.39923C14.1204 0.930385 13.4845 0.666992 12.8214 0.666992ZM14.8333 4.00033L13.4107 2.57774C13.2544 2.42146 13.0425 2.33366 12.8214 2.33366H5.17847C4.95746 2.33366 4.7455 2.42146 4.58922 2.57774L3.16663 4.00033H14.8333ZM2.33329 6.50033V14.8337C2.33329 15.2939 2.70639 15.667 3.16663 15.667H14.8333C15.2935 15.667 15.6666 15.2939 15.6666 14.8337V6.50033C15.6666 6.04009 15.2935 5.66699 14.8333 5.66699H3.16663C2.70639 5.66699 2.33329 6.04009 2.33329 6.50033ZM3.99996 13.167C3.99996 12.7068 4.37306 12.3337 4.83329 12.3337H6.49996C6.9602 12.3337 7.33329 12.7068 7.33329 13.167C7.33329 13.6272 6.9602 14.0003 6.49996 14.0003H4.83329C4.37306 14.0003 3.99996 13.6272 3.99996 13.167ZM4.83329 9.83366C4.37306 9.83366 3.99996 10.2068 3.99996 10.667C3.99996 11.1272 4.37306 11.5003 4.83329 11.5003H8.16663C8.62686 11.5003 8.99996 11.1272 8.99996 10.667C8.99996 10.2068 8.62686 9.83366 8.16663 9.83366H4.83329Z" fill="#1C294D" fill-opacity="0.5"/>
</svg>
