<svg width="18" height="14" viewBox="0 0 18 14" fill="none" xmlns="http://www.w3.org/2000/svg">
<path fill-rule="evenodd" clip-rule="evenodd" d="M3.16663 0.333008C1.78591 0.333008 0.666626 1.4523 0.666626 2.83301V11.1663C0.666626 12.5471 1.78591 13.6663 3.16663 13.6663H14.8333C16.214 13.6663 17.3333 12.5471 17.3333 11.1663V2.83301C17.3333 1.4523 16.214 0.333008 14.8333 0.333008H3.16663ZM2.40939 2.48462C2.5413 2.19837 2.83076 1.99967 3.16663 1.99967H14.8333C15.1692 1.99967 15.4586 2.19837 15.5905 2.48462L9.51158 7.2127C9.21065 7.44675 8.78927 7.44675 8.48834 7.2127L2.40939 2.48462ZM2.33329 4.53687V9.38714L5.3438 6.87838L2.33329 4.53687ZM2.40238 11.4991C2.53083 11.7937 2.82468 11.9997 3.16663 11.9997H14.8333C15.1752 11.9997 15.4691 11.7937 15.5975 11.4991L11.3095 7.92573L10.5348 8.52829C9.63204 9.23044 8.36789 9.23044 7.46511 8.52829L6.6904 7.92573L2.40238 11.4991ZM15.6666 9.38714V4.53687L12.6561 6.87838L15.6666 9.38714Z" fill="#1C294D" fill-opacity="0.5"/>
</svg>
