<svg width="166" height="73" viewBox="0 0 166 73" fill="none" xmlns="http://www.w3.org/2000/svg">
<path d="M36.6791 46.3727C46.5705 38.0766 50.0804 32.2269 50.0804 22.3355C50.0804 10.955 44.0179 0 25.1923 0C6.36668 0 0.304199 10.955 0.304199 24.4626H14.1309C14.1309 17.0175 16.3645 13.8267 25.1923 13.8267C34.0201 13.8267 36.2537 16.8048 36.2537 22.3355C36.2537 29.3552 31.3611 33.1841 21.257 41.1611L0.304199 58.4976V72.3243H49.0168V58.4976H22.746L36.6791 46.3727Z" fill="#263238"/>
<path d="M61.7683 36.5876H102.398V22.7609H61.7683V36.5876ZM61.7683 57.8595H102.398V44.0328H61.7683V57.8595Z" fill="#263238"/>
<path d="M146 29.7806L163.868 13.8267V0H117.283V13.8267H144.511L128.876 28.717L133.662 39.353H140.895C148.34 39.353 152.169 41.6929 152.169 48.9253C152.169 55.8386 149.191 58.4976 140.044 58.4976C131.003 58.4976 127.919 55.8386 127.919 48.9253H114.092C114.092 61.3693 121.75 72.3243 140.044 72.3243C158.338 72.3243 165.995 61.3693 165.995 49.9889C165.995 35.4177 155.572 28.717 146 29.7806Z" fill="#263238"/>
</svg>
