<svg width="166" height="17" viewBox="0 0 166 17" fill="none" xmlns="http://www.w3.org/2000/svg">
<path d="M3.96932 1.0381H0V16.489H3.96932V10.4233H9.08945V16.489H13.0295V1.0381H9.08945V7.0535H3.96932V1.0381Z" fill="#263238"/>
<path d="M20.2498 16.7808C22.4636 16.7808 23.8973 15.7849 24.6287 14.3464H24.7457V16.489H28.6858V6.0677C28.6858 2.38603 25.6625 0.836914 22.3271 0.836914C18.7381 0.836914 16.378 2.60733 15.8026 5.42391L19.6451 5.74581C19.9279 4.71977 20.8154 3.96533 22.3076 3.96533C23.7217 3.96533 24.5312 4.69965 24.5312 5.96711V6.02746C24.5312 7.02332 23.5072 7.15409 20.9032 7.41563C17.9384 7.69729 15.2759 8.72333 15.2759 12.1736C15.2759 15.2316 17.3923 16.7808 20.2498 16.7808ZM21.4396 13.8233C20.162 13.8233 19.2453 13.2097 19.2453 12.0328C19.2453 10.8257 20.2108 10.2322 21.6737 10.021C22.5807 9.8902 24.0631 9.6689 24.5604 9.32688V10.9665C24.5604 12.5861 23.2633 13.8233 21.4396 13.8233Z" fill="#263238"/>
<path d="M37.7161 16.489H45.0891C48.8341 16.489 50.9211 14.9097 50.9211 12.2742C50.9211 10.2423 49.3607 8.6328 46.669 8.43161C48.8146 8.04936 50.0922 6.8825 50.0922 5.21267C50.0922 2.53692 47.8003 1.0381 44.104 1.0381H37.7161V16.489ZM41.5879 13.2802V9.91032H45.0891C46.2399 9.91032 46.9421 10.5843 46.9421 11.6807C46.9421 12.6766 46.2399 13.2802 45.0891 13.2802H41.5879ZM41.5879 7.39552V4.3174H44.104C45.3914 4.3174 46.1814 4.89077 46.1814 5.83634C46.1814 6.81208 45.4304 7.39552 44.1918 7.39552H41.5879Z" fill="#263238"/>
<path d="M60.0334 16.7908C64.0222 16.7908 66.5287 14.3766 66.7237 10.8257H62.8032C62.5593 12.4754 61.5061 13.4009 60.0822 13.4009C58.1414 13.4009 56.8833 11.721 56.8833 8.76357C56.8833 5.8464 58.1511 4.17657 60.0822 4.17657C61.6036 4.17657 62.5788 5.21267 62.8032 6.75173H66.7237C66.5482 3.18071 63.9247 0.836914 60.0139 0.836914C55.4692 0.836914 52.6604 4.08604 52.6604 8.82392C52.6604 13.5216 55.4204 16.7908 60.0334 16.7908Z" fill="#263238"/>
<path d="M75.936 16.7908C79.642 16.7908 82.1386 14.9299 82.7238 12.063L78.8813 11.8014C78.4619 12.9784 77.3891 13.592 76.0042 13.592C73.9269 13.592 72.6103 12.1736 72.6103 9.87008V9.86002H82.8116V8.68309C82.8116 3.43219 79.7297 0.836914 75.7702 0.836914C71.362 0.836914 68.5044 4.06592 68.5044 8.83398C68.5044 13.7328 71.323 16.7908 75.936 16.7908ZM72.6103 7.20439C72.6981 5.44403 73.9952 4.03574 75.8384 4.03574C77.6427 4.03574 78.891 5.36356 78.9008 7.20439H72.6103Z" fill="#263238"/>
<path d="M91.3298 16.489H95.4844V11.0068H97.0351L100.731 16.489H105.666L100.312 8.70321L105.608 1.0381H100.731L96.6547 7.03338H95.4844V1.0381H91.3298V16.489Z" fill="#263238"/>
<path d="M111.116 1.0381H107.147V16.489H111.116V10.4233H116.236V16.489H120.177V1.0381H116.236V7.0535H111.116V1.0381Z" fill="#263238"/>
<path d="M127.094 10.8358V1.0381H123.125V16.489H127.251L132.624 6.66119V16.489H136.584V1.0381H132.488L127.094 10.8358Z" fill="#263238"/>
<path d="M149.899 1.0381H139.64V16.489H143.677V4.40793H149.899V1.0381Z" fill="#263238"/>
<path d="M156.127 10.8358V1.0381H152.158V16.489H156.283L161.657 6.66119V16.489H165.617V1.0381H161.521L156.127 10.8358Z" fill="#263238"/>
</svg>
