<svg width="10" height="18" viewBox="0 0 10 18" fill="none" xmlns="http://www.w3.org/2000/svg">
<path fill-rule="evenodd" clip-rule="evenodd" d="M1.66667 3.1818C1.66667 2.71884 2.03976 2.34353 2.5 2.34353H7.5C7.96024 2.34353 8.33333 2.71884 8.33333 3.1818V15.2339C8.33333 15.5967 7.90607 15.7882 7.63793 15.5454L5.55747 13.6619C5.24055 13.375 4.75945 13.375 4.44253 13.6619L2.36207 15.5454C2.09393 15.7882 1.66667 15.5967 1.66667 15.2339V3.1818ZM2.5 0.666992H7.5C8.88071 0.666992 10 1.79291 10 3.1818V15.2339C10 17.0482 7.86366 18.0053 6.52299 16.7916L5 15.4128L3.47701 16.7916C2.13633 18.0053 0 17.0482 0 15.2339V3.1818C0 1.79291 1.11929 0.666992 2.5 0.666992Z" fill="#1C294D" fill-opacity="0.5"/>
</svg>
